<svg width="140" height="140" fill="none" xmlns="http://www.w3.org/2000/svg"><path d="M43.572 108.341l25.718 15.782c.2.122.424.183.65.183.209 0 .446-.07.635-.175-.014.008.014-.008 0 0l25.734-15.791a1.24 1.24 0 0 0 .593-1.058V82.671c0-.01-.002.01-.002 0 0-.012 0 .01 0 0-.022-.454-.29-.894-.698-1.093l-25.72-12.47a1.242 1.242 0 0 0-1.084 0L43.68 81.579c-.409.199-.676.64-.7 1.093 0 .02.002-.02.002 0h-.003v24.611c.001.432.225.833.593 1.059zm1.892-1.753V84.915l23.234 14.258v21.672l-23.234-14.257zm25.718 14.258V99.173l23.236-14.259v21.673l-23.236 14.259zm-20.755-39.78L69.28 92.905a1.242 1.242 0 0 0 1.32-2.103L53.064 79.789l16.877-8.183 23.138 11.218L69.94 97.02 46.804 82.824l3.623-1.757z" fill="#fff"/><path d="M138.758.818H1.242C.556.818 0 1.374 0 2.06v135.88a1.24 1.24 0 0 0 1.242 1.241h137.516c.686 0 1.242-.555 1.242-1.241V2.06c0-.686-.556-1.242-1.242-1.242zM13.538 28.157h33.966v4.723H13.537v-4.723zm33.966-2.484H13.537v-.658c0-6.404 5.21-11.614 11.614-11.614h22.353v12.272zm-33.967 86.042h21.244a1.242 1.242 0 1 0 0-2.484H13.537v-5.405h9.85a1.24 1.24 0 1 0 0-2.483h-9.85V46.855H40.04a1.241 1.241 0 1 0 0-2.483H13.537v-9.008h33.967v8.935c0 .429.22.827.585 1.053l20.67 12.887v6.463a1.241 1.241 0 1 0 2.483 0V58.24l20.67-12.886c.363-.227.584-.626.584-1.054v-8.935h33.967v65.979h-9.731a1.241 1.241 0 1 0 0 2.483h9.731v9.358c-.031-.002-.059-.009-.09-.009h-24.542a1.242 1.242 0 1 0 0 2.484h24.542c.016 0 .032-.005.048-.005-.481 5.965-5.486 10.672-11.572 10.672H25.151c-6.404 0-11.614-5.21-11.614-11.614v-2.997zM126.463 32.88H92.496v-4.723h33.967v4.723zm0-7.207H92.496V13.401h22.353c6.404 0 11.614 5.21 11.614 11.614v.658zM90.013 12.16v31.45L70 56.086 51.443 44.518h29.042a1.241 1.241 0 1 0 0-2.484H50.1c-.038 0-.075.008-.112.012V3.3h5.688v24.003a1.241 1.241 0 1 0 2.483 0V3.3h31.855v8.858zm47.504 124.54H2.483V3.301h45.02v7.616H25.152c-7.773 0-14.097 6.324-14.097 14.098v89.697c0 7.773 6.324 14.098 14.097 14.098h89.698c7.773 0 14.097-6.325 14.097-14.098V25.015c0-7.774-6.324-14.098-14.097-14.098H92.496V3.301h45.021V136.7z" fill="#fff"/></svg>