<svg width="139" height="132" fill="none" xmlns="http://www.w3.org/2000/svg"><path d="M138.994 60.114c0-8.572-4.627-16.584-12.191-21.331.052-.533.087-1.07.087-1.614 0-10.718-7.385-19.29-17.346-20.546C107.569 7.129 98.69 0 88.317 0c-8.033 0-15.064 4.16-18.823 10.323C65.735 4.154 58.704 0 50.671 0c-10.367 0-19.24 7.123-21.215 16.606-9.903 1.202-17.351 9.801-17.351 20.558 0 .548.034 1.086.086 1.613C4.621 43.524 0 51.537 0 60.108c0 5.137 1.627 10.054 4.738 14.346C1.628 78.745 0 83.662 0 88.799c0 9.01 5.045 17.314 13.251 21.962 3.603 12.392 15.348 20.942 29.005 20.942 12.012 0 22.408-6.695 27.244-16.354 4.842 9.659 15.232 16.354 27.244 16.354 13.651 0 25.402-8.55 29.005-20.942C133.955 106.113 139 97.81 139 88.799c0-5.137-1.627-10.054-4.738-14.345 3.111-4.292 4.738-9.209 4.738-14.346l-.006.006zM42.25 126.22c-11.375 0-21.116-7.353-23.676-17.879-.186-.774-.718-1.427-1.454-1.805-6.99-3.546-11.334-10.345-11.334-17.732 0-4.566 1.662-8.928 4.807-12.616a2.638 2.638 0 0 0 0-3.452c-3.145-3.688-4.807-8.05-4.807-12.617 0-7.222 4.199-13.944 10.958-17.539 1.077-.57 1.65-1.728 1.43-2.875-.156-.824-.278-1.663-.278-2.53 0-7.48 5.218-15.213 14.103-15.213 1.512 0 2.774-1.103 2.884-2.53C35.52 11.623 42.464 5.5 50.677 5.5c8.786 0 15.927 6.766 15.927 15.091v25.925H51.76c-1.291-4.73-5.832-8.232-11.218-8.232-6.389 0-11.584 4.923-11.584 10.976 0 6.053 5.196 10.976 11.584 10.976 5.386 0 9.927-3.502 11.218-8.232h14.844V84.93H51.76c-1.291-4.73-5.832-8.232-11.218-8.232-6.389 0-11.584 4.923-11.584 10.976 0 6.053 5.196 10.975 11.584 10.975 5.386 0 9.927-3.5 11.218-8.231h14.844v12.737c0 12.721-10.923 23.076-24.348 23.076l-.006-.011zm4.078-76.972c0 3.024-2.595 5.488-5.792 5.488-3.197 0-5.792-2.464-5.792-5.488 0-3.024 2.595-5.488 5.792-5.488 3.197 0 5.791 2.464 5.791 5.488zm0 38.415c0 3.024-2.595 5.488-5.792 5.488-3.197 0-5.792-2.464-5.792-5.488 0-3.024 2.595-5.488 5.792-5.488 3.197 0 5.791 2.464 5.791 5.488zm82.067-11.48c3.145 3.687 4.808 8.05 4.808 12.616 0 7.392-4.344 14.186-11.335 17.731a2.761 2.761 0 0 0-1.453 1.806c-2.56 10.525-12.302 17.879-23.677 17.879-13.425 0-24.348-10.35-24.348-23.076V76.682h14.48c7.986 0 14.478-6.158 14.478-13.72v-3.09c4.993-1.223 8.688-5.52 8.688-10.63 0-6.053-5.195-10.975-11.584-10.975-6.388 0-11.583 4.922-11.583 10.975 0 5.104 3.695 9.407 8.688 10.63v3.09c0 4.538-3.898 8.232-8.688 8.232H72.39V20.579c0-8.325 7.141-15.091 15.927-15.091 8.213 0 15.151 6.119 15.794 13.934.116 1.426 1.523 2.53 3.029 2.53 8.734 0 13.952 7.737 13.952 15.212 0 .867-.121 1.706-.278 2.53-.22 1.146.359 2.304 1.431 2.875 6.759 3.595 10.958 10.317 10.958 17.54 0 4.565-1.663 8.928-4.808 12.616a2.639 2.639 0 0 0 0 3.452v.005zM98.452 54.735c-3.197 0-5.791-2.464-5.791-5.488 0-3.024 2.594-5.488 5.791-5.488 3.198 0 5.792 2.464 5.792 5.488 0 3.024-2.594 5.488-5.791 5.488z" fill="#fff"/></svg>