<svg width="74" height="74" fill="none" xmlns="http://www.w3.org/2000/svg"><path d="M28.746 47.534h16.508a2.28 2.28 0 0 0 2.28-2.28V28.746a2.28 2.28 0 0 0-2.28-2.28H28.746a2.28 2.28 0 0 0-2.28 2.28v16.508a2.28 2.28 0 0 0 2.28 2.28zm2.28-16.508h11.948v11.948H31.026V31.026zM71.2 39.28a2.28 2.28 0 1 0 0-4.56h-8.162V23.126H71.2a2.28 2.28 0 1 0 0-4.56h-8.162v-5.324a2.28 2.28 0 0 0-2.28-2.28h-5.324V2.8a2.28 2.28 0 1 0-4.56 0v8.162H39.28V2.8a2.28 2.28 0 1 0-4.56 0v8.162H23.126V2.8a2.28 2.28 0 1 0-4.56 0v8.162h-5.324a2.28 2.28 0 0 0-2.28 2.28v5.324H2.8a2.28 2.28 0 1 0 0 4.56h8.162V34.72H2.8a2.28 2.28 0 1 0 0 4.56h8.162v11.594H2.8a2.28 2.28 0 1 0 0 4.56h8.162v5.324a2.28 2.28 0 0 0 2.28 2.28h5.324V71.2a2.28 2.28 0 1 0 4.56 0v-8.162H34.72V71.2a2.28 2.28 0 1 0 4.56 0v-8.162h11.594V71.2a2.28 2.28 0 1 0 4.56 0v-8.162h5.324a2.28 2.28 0 0 0 2.28-2.28v-5.324H71.2a2.28 2.28 0 1 0 0-4.56h-8.162V39.28H71.2zM58.478 58.478H15.522V15.522h42.956v42.956z" fill="#000"/></svg>