<svg width="173" height="173" fill="none" xmlns="http://www.w3.org/2000/svg"><path d="M57.803 78.784l-21.036-4.075V69.57a7.633 7.633 0 0 0-7.635-7.635c-4.22 0-7.663 3.416-7.663 7.635v23.908c0 4.218 3.443 7.663 7.663 7.663 4.218 0 7.635-3.445 7.635-7.663v-4.507c6.113 1.292 14.55 3.044 20.09 4.134 9.557 1.923 12.427 16.274 29.648 16.274 2.699 0 5.052-.345 7.147-.976l-30.28-30.279c-1.952.401-3.817.659-5.569.659zm58.35 14.322c5.54-1.09 13.949-2.841 20.063-4.134v4.507c0 4.218 3.443 7.663 7.663 7.663 4.219 0 7.635-3.445 7.635-7.663V69.571a7.632 7.632 0 0 0-7.635-7.635c-4.22 0-7.663 3.417-7.663 7.635v5.138l-21.039 4.075c-7.635 0-17.192-4.793-28.673-4.793-.9 0-1.788.037-2.667.09L32.69 22.93l-7.481 7.479 119.656 119.659 7.478-7.481-44.357-44.358c2.499-2.436 4.953-4.485 8.167-5.124zM33.982 48.735H0v9.987h43.97l-9.988-9.987z" fill="#fff"/><path d="M173 48.726h-58.26v9.987H173v-9.987zM24.769 46.44h6.917l-4.076-4.076a4.33 4.33 0 0 0-2.841 4.076zm119.104-4.376a4.371 4.371 0 0 0-4.373 4.372h8.74a4.37 4.37 0 0 0-4.367-4.372z" fill="#fff"/></svg>