<svg width="127" height="127" fill="none" xmlns="http://www.w3.org/2000/svg"><g clip-path="url(#clip0_164_19)" fill="#fff"><path d="M27.781 35.183a1.11 1.11 0 0 0 .536-.159.992.992 0 0 0 .298-1.369 10.894 10.894 0 0 1 15.041-15.061.992.992 0 0 0 1.505-1.053 1.012 1.012 0 0 0-.433-.634 12.899 12.899 0 0 0-17.86 17.86 1.072 1.072 0 0 0 .913.416zm9.922 3.513c-1.154.004-2.3-.184-3.393-.556a1.032 1.032 0 0 0-1.27.635.992.992 0 0 0 .635 1.25c1.28.428 2.62.65 3.969.655a12.92 12.92 0 0 0 12.958-12.9 12.679 12.679 0 0 0-.655-3.968.992.992 0 0 0-1.25-.635 1.032 1.032 0 0 0-.636 1.27 10.4 10.4 0 0 1 .556 3.333 10.934 10.934 0 0 1-10.914 10.915z"/><path d="M37.703 32.742a4.961 4.961 0 1 0 0-9.922 4.961 4.961 0 0 0 0 9.922zm0-7.937a2.977 2.977 0 1 1 0 5.954 2.977 2.977 0 0 1 0-5.954zm73.918 27.92a.966.966 0 0 0-.75-.107.974.974 0 0 0-.599.464l-7.085 12.502-3.075-4.624a1.003 1.003 0 0 0-1.667 1.111l3.969 5.953a1.01 1.01 0 0 0 .833.437.974.974 0 0 0 .814-.496l7.937-13.89a.98.98 0 0 0 .099-.756.982.982 0 0 0-.476-.594z"/><path d="M121.047 75.406h-2.342a5.944 5.944 0 0 0 .357-1.984V33.734a5.954 5.954 0 0 0-5.953-5.953H97.234a5.953 5.953 0 0 0-5.953 5.953v1.985a1.984 1.984 0 0 0-1.984 1.984v3.969a1.984 1.984 0 0 0 1.984 1.984v29.766c.006.677.126 1.348.357 1.984h-29.13V63.5h.992a1.985 1.985 0 0 0 1.984-1.984h3.97a5.953 5.953 0 0 0 5.952-5.953V5.953A5.953 5.953 0 0 0 69.453 0h-63.5A5.953 5.953 0 0 0 0 5.953v49.61a5.953 5.953 0 0 0 5.953 5.953h21.828a59.331 59.331 0 0 1-3.254 13.89H5.953a5.953 5.953 0 0 0-1.984 11.55v34.091A5.951 5.951 0 0 0 9.922 127a5.951 5.951 0 0 0 5.953-5.953v-17.859h33.734a5.956 5.956 0 0 0 5.953-5.954v-9.921h4.961v15.875a22.82 22.82 0 0 0 45.641 0V87.312h4.961v33.735c0 1.579.627 3.093 1.744 4.209a5.949 5.949 0 0 0 8.419 0 5.952 5.952 0 0 0 1.743-4.209V86.955a5.95 5.95 0 0 0 3.837-6.604 5.956 5.956 0 0 0-5.821-4.945zM95.25 33.734a1.985 1.985 0 0 1 1.984-1.984h15.875a1.987 1.987 0 0 1 1.985 1.984v.596h-.992a3.81 3.81 0 0 0-2.957 1.508c-.556.595-.853.873-1.508.873h-8.93c-.655 0-.953-.278-1.508-.873a3.81 3.81 0 0 0-2.957-1.508h-.992v-.596zm0 39.688V36.314h.992c.655 0 .953.278 1.508.873a3.81 3.81 0 0 0 2.957 1.508h8.93a3.81 3.81 0 0 0 2.956-1.508c.556-.595.854-.873 1.509-.873h.992v37.108a1.985 1.985 0 0 1-1.985 1.984H97.234a1.984 1.984 0 0 1-1.984-1.984zm1.984 5.953h3.969a1.985 1.985 0 0 0 1.984 1.984h.993v1.985H62.508v-3.969h34.726zm-36.71-3.969h-9.545a59.336 59.336 0 0 1-3.255-13.89h9.823A1.984 1.984 0 0 0 59.53 63.5h.992v11.906zm10.913-19.844a1.985 1.985 0 0 1-1.984 1.985H40.64a4.922 4.922 0 0 0 1.984-3.969 5.02 5.02 0 0 0-.952-2.976h29.766v4.96zm-33.734-4.96a2.976 2.976 0 1 1 0 5.952 2.976 2.976 0 0 1 0-5.952zM5.953 3.969h63.5a1.985 1.985 0 0 1 1.984 1.984v42.664H3.97V5.953A1.984 1.984 0 0 1 5.953 3.97zM3.97 55.562v-4.96h29.765a5.02 5.02 0 0 0-.992 2.976 4.92 4.92 0 0 0 1.985 3.969H5.953a1.985 1.985 0 0 1-1.984-1.984zm27.781 5.954h11.906a58.543 58.543 0 0 0 3.036 13.89H28.634a58.538 58.538 0 0 0 3.116-13.89zm-19.844 39.687v12.899h-3.97v-26.79h3.97v13.891zm-1.984 21.828a1.985 1.985 0 0 1-1.985-1.984v-4.961h3.97v4.961a1.984 1.984 0 0 1-1.985 1.984zm41.672-25.797a1.984 1.984 0 0 1-1.985 1.985H15.875V87.313h35.719v9.921zm1.984-13.89H5.953a1.984 1.984 0 0 1 0-3.969h54.57v3.969h-6.945zm50.602 19.844a20.839 20.839 0 0 1-20.836 20.835 20.837 20.837 0 0 1-20.836-20.835V87.312h41.672v15.876zm14.882 10.914h-3.968v-26.79h3.968v26.79zm-1.984 8.929a1.985 1.985 0 0 1-1.984-1.984v-4.961h3.968v4.961a1.985 1.985 0 0 1-1.984 1.984zm3.969-39.687h-14.883v-1.985h.992a1.983 1.983 0 0 0 1.985-1.984h11.906a1.984 1.984 0 0 1 0 3.969z"/><path d="M33.734 96.242a2.976 2.976 0 1 0 0-5.953 2.976 2.976 0 0 0 0 5.953zm0-3.969a.992.992 0 1 1 0 1.984.992.992 0 0 1 0-1.984z"/></g><defs><clipPath id="clip0_164_19"><path fill="#fff" d="M0 0h127v127H0z"/></clipPath></defs></svg>