<svg width="115" height="114" fill="none" xmlns="http://www.w3.org/2000/svg"><path d="M57.5 44.111a37.959 37.959 0 0 1 26.574 10.793l-3.741 3.86a32.744 32.744 0 0 0-45.666 0l-3.741-3.86A37.959 37.959 0 0 1 57.5 44.111zm41.807-4.38a59.19 59.19 0 0 0-83.614 0l3.8 3.8a53.81 53.81 0 0 1 76.014 0l3.8-3.8zM.493 24.53l3.794 3.794a75.341 75.341 0 0 1 106.415 0l3.8-3.8a80.712 80.712 0 0 0-114.015 0l.006.005zm105.382 72.702v16.017H9.125V97.233A16.254 16.254 0 0 1 25.357 81h16.018a16.125 16.125 0 1 1 32.25 0h16.017a16.253 16.253 0 0 1 16.233 16.233zm-5.375 0a10.869 10.869 0 0 0-10.858-10.858H25.357A10.868 10.868 0 0 0 14.5 97.233v10.642h86V97.233zM46.75 81h21.5a10.75 10.75 0 1 0-21.5 0z" fill="#fff"/></svg>