<svg width="131" height="102" fill="none" xmlns="http://www.w3.org/2000/svg"><path d="M65.5 85c4.682 0 8.477 3.805 8.477 8.5S70.182 102 65.5 102V85zm-.085 17c-4.682 0-8.477-3.805-8.477-8.5s3.795-8.5 8.477-8.5v17zM42.693 68.34a8.461 8.461 0 0 1-11.975-.568c-3.15-3.473-2.896-8.848.566-12.008L42.693 68.34zM14.18 36.892a8.46 8.46 0 0 1-11.974-.568c-3.151-3.472-2.897-8.849.566-12.007L14.18 36.892zm85.535 18.872c3.463 3.16 3.717 8.535.566 12.008a8.461 8.461 0 0 1-11.975.568l11.409-12.576zm28.511-31.447c3.463 3.158 3.717 8.535.567 12.007a8.46 8.46 0 0 1-11.975.569l11.408-12.576zM65.5 102h-.085V85h.085v17zm0-42.5c-8.788 0-16.778 3.341-22.807 8.84L31.284 55.764C40.312 47.53 52.33 42.5 65.5 42.5v17zm0-42.5c-19.767 0-37.761 7.527-51.319 19.892L2.773 24.317C19.329 9.216 41.352 0 65.5 0v17zm22.807 51.34C82.28 62.841 74.288 59.5 65.5 59.5v-17c13.17 0 25.188 5.03 34.216 13.264L88.306 68.34zm28.512-31.448C103.261 24.527 85.267 17 65.5 17V0c24.149 0 46.171 9.216 62.727 24.317l-11.408 12.575z" fill="#fff"/></svg>