<svg width="64" height="54" fill="none" xmlns="http://www.w3.org/2000/svg"><path d="M16 7.693H4c-2.21 0-4 1.568-4 3.498v38.49c0 1.933 1.79 3.498 4 3.498h12c2.211 0 4-1.565 4-3.498V11.19c0-1.93-1.789-3.498-4-3.498zM6 42.683c-1.105 0-2-.783-2-1.75s.895-1.75 2-1.75c1.106 0 2 .783 2 1.75s-.894 1.75-2 1.75zm10-20.995H4V18.19h12v3.498zm0-6.997H4v-3.5h12v3.5zM42 46.18v-3.498H30v3.499c-2.21 0-4 1.565-4 3.5h20c0-1.935-1.789-3.5-4-3.5z" fill="#000"/><path d="M60 .694H12c-2.21 0-4 1.569-4 3.5h52v27.99H24v7h36c2.211 0 4-1.566 4-3.5V4.193c0-1.931-1.79-3.5-4-3.5zm-24 36.74c-1.105 0-2-.782-2-1.75 0-.967.895-1.75 2-1.75 1.106 0 2 .783 2 1.75 0 .968-.894 1.75-2 1.75z" fill="#000"/></svg>