<svg width="140" height="140" viewBox="0 0 140 140" fill="none" xmlns="http://www.w3.org/2000/svg">
<path d="M43.5723 108.341L69.2903 124.123C69.4893 124.245 69.7143 124.306 69.9398 124.306C70.1487 124.306 70.386 124.236 70.5747 124.131C70.561 124.139 70.589 124.123 70.5747 124.131L96.3094 108.34C96.6776 108.115 96.9017 107.714 96.9017 107.282V82.6707C96.9017 82.6602 96.8999 82.6803 96.8996 82.6707C96.8993 82.6593 96.9008 82.6818 96.9002 82.6707C96.8777 82.2175 96.6098 81.7766 96.2016 81.5785L70.4815 69.1088C70.1391 68.9429 69.7403 68.9429 69.3978 69.1088L43.6795 81.5788C43.2713 81.7769 43.0037 82.2175 42.9809 82.6707C42.98 82.6911 42.9821 82.6505 42.9821 82.6707H42.9794V107.282C42.98 107.714 43.2041 108.115 43.5723 108.341ZM45.4635 106.588V84.9146L68.6981 99.1727V120.845L45.4635 106.588ZM71.1816 120.846V99.1727L94.4182 84.9143V106.587L71.1816 120.846ZM50.4275 81.0669L69.2795 92.9044C69.4846 93.033 69.7128 93.0946 69.9386 93.0946C70.3515 93.0946 70.7556 92.8886 70.9916 92.5129C71.3563 91.9323 71.181 91.1657 70.6001 90.801L53.0632 79.7893L69.9401 71.6063L93.0777 82.8238L69.9401 97.0214L46.8043 82.8241L50.4275 81.0669Z" fill="white"/>
<path d="M138.758 0.817871H1.24174C0.555716 0.817871 0 1.37359 0 2.05961V137.941C0 138.627 0.555716 139.182 1.24174 139.182H138.758C139.444 139.182 140 138.627 140 137.941V2.05961C140 1.37359 139.444 0.817871 138.758 0.817871ZM13.5373 28.1566H47.5037V32.8802H13.5373V28.1566ZM47.5037 25.6731H13.5373V25.0146C13.5373 18.6107 18.7474 13.4007 25.1512 13.4007H47.5037V25.6731ZM13.5373 111.715H34.7807C35.4668 111.715 36.0225 111.159 36.0225 110.473C36.0225 109.787 35.4668 109.231 34.7807 109.231H13.5373V103.826H23.3865C24.0725 103.826 24.6283 103.271 24.6283 102.585C24.6283 101.898 24.0725 101.343 23.3865 101.343H13.5373V46.8552H40.0396C40.7256 46.8552 41.2813 46.2995 41.2813 45.6135C41.2813 44.9274 40.7256 44.3717 40.0396 44.3717H13.5373V35.3637H47.5037V44.299C47.5037 44.7276 47.7249 45.1258 48.0887 45.3525L68.7583 58.2386V64.7024C68.7583 65.3884 69.314 65.9441 70 65.9441C70.686 65.9441 71.2417 65.3884 71.2417 64.7024V58.2386L91.9113 45.3525C92.2751 45.1258 92.4963 44.7273 92.4963 44.299V35.3637H126.463V101.343H116.732C116.046 101.343 115.49 101.898 115.49 102.585C115.49 103.271 116.046 103.826 116.732 103.826H126.463V113.184C126.432 113.182 126.404 113.175 126.373 113.175H101.831C101.145 113.175 100.589 113.731 100.589 114.417C100.589 115.103 101.145 115.659 101.831 115.659H126.373C126.389 115.659 126.405 115.654 126.421 115.654C125.94 121.619 120.935 126.326 114.849 126.326H25.1512C18.7474 126.326 13.5373 121.116 13.5373 114.712V111.715ZM126.463 32.8802H92.4963V28.1566H126.463V32.8802ZM126.463 25.6731H92.4963V13.4007H114.849C121.253 13.4007 126.463 18.6107 126.463 25.0146V25.6731ZM90.0128 12.1589V43.61L70 56.0864L51.4434 44.5178H80.4853C81.1713 44.5178 81.727 43.9621 81.727 43.2761C81.727 42.59 81.1713 42.0343 80.4853 42.0343H50.0991C50.0606 42.0343 50.0243 42.0422 49.9869 42.0457V12.1589V3.30135H55.675V27.3038C55.675 27.9898 56.2307 28.5455 56.9167 28.5455C57.6028 28.5455 58.1585 27.9898 58.1585 27.3038V3.30135H90.0125V12.1589H90.0128ZM137.517 136.699H2.48348V3.30135H47.5037V10.9172H25.1512C17.3779 10.9172 11.0538 17.2413 11.0538 25.0146V114.712C11.0538 122.485 17.3779 128.81 25.1512 128.81H114.849C122.622 128.81 128.946 122.485 128.946 114.712V25.0146C128.946 17.2413 122.622 10.9172 114.849 10.9172H92.4963V3.30135H137.517V136.699Z" fill="white"/>
</svg>
