<svg width="139" height="132" viewBox="0 0 139 132" fill="none" xmlns="http://www.w3.org/2000/svg">
<path d="M138.994 60.1139C138.994 51.5418 134.367 43.5296 126.803 38.7826C126.855 38.2503 126.89 37.7125 126.89 37.1692C126.89 26.4514 119.505 17.8794 109.544 16.6227C107.569 7.12871 98.69 0 88.3171 0C80.2841 0 73.253 4.15979 69.4942 10.3226C65.7354 4.1543 58.7043 0 50.6713 0C40.3042 0 31.4314 7.12322 29.4564 16.6062C19.5527 17.8081 12.1046 26.4075 12.1046 37.1637C12.1046 37.7125 12.1393 38.2503 12.1915 38.7771C4.62175 43.5241 0 51.5364 0 60.1084C0 65.245 1.62746 70.1621 4.73758 74.4536C1.62746 78.7451 0 83.6622 0 88.7988C0 97.8099 5.04454 106.113 13.2513 110.761C16.8538 123.153 28.5992 131.703 42.256 131.703C54.2679 131.703 64.664 125.008 69.5 115.349C74.3418 125.008 84.7321 131.703 96.744 131.703C110.395 131.703 122.146 123.153 125.749 110.761C133.955 106.113 139 97.8099 139 88.7988C139 83.6622 137.373 78.7451 134.262 74.4536C137.373 70.1621 139 65.245 139 60.1084L138.994 60.1139ZM42.2502 126.22C30.8754 126.22 21.1338 118.867 18.5739 108.341C18.3885 107.567 17.8557 106.914 17.1202 106.536C10.1296 102.99 5.78587 96.191 5.78587 88.8043C5.78587 84.2384 7.44808 79.8756 10.593 76.1878C11.4501 75.178 11.4501 73.7457 10.593 72.7359C7.44808 69.0481 5.78587 64.6852 5.78587 60.1193C5.78587 52.8973 9.98483 46.1747 16.7437 42.5802C17.821 42.0095 18.3943 40.8515 18.1742 39.7046C18.0179 38.8814 17.8962 38.0417 17.8962 37.1747C17.8962 29.6947 23.1145 21.9624 31.999 21.9624C33.5106 21.9624 34.7732 20.8593 34.8832 19.4325C35.5203 11.6233 42.4645 5.49882 50.6771 5.49882C59.463 5.49882 66.6042 12.2653 66.6042 20.5904V46.515H51.7601C50.4686 41.7845 45.9279 38.2832 40.5417 38.2832C34.1535 38.2832 28.9583 43.2058 28.9583 49.2589C28.9583 55.312 34.1535 60.2346 40.5417 60.2346C45.9279 60.2346 50.4686 56.7333 51.7601 52.0028H66.6042V84.9299H51.7601C50.4686 80.1994 45.9279 76.6981 40.5417 76.6981C34.1535 76.6981 28.9583 81.6207 28.9583 87.6738C28.9583 93.7269 34.1535 98.6495 40.5417 98.6495C45.9279 98.6495 50.4686 95.1483 51.7601 90.4177H66.6042V103.155C66.6042 115.876 55.6811 126.231 42.256 126.231L42.2502 126.22ZM46.3275 49.2479C46.3275 52.2717 43.7329 54.7358 40.5359 54.7358C37.3389 54.7358 34.7442 52.2717 34.7442 49.2479C34.7442 46.2241 37.3389 43.7601 40.5359 43.7601C43.7329 43.7601 46.3275 46.2241 46.3275 49.2479ZM46.3275 87.6628C46.3275 90.6866 43.7329 93.1507 40.5359 93.1507C37.3389 93.1507 34.7442 90.6866 34.7442 87.6628C34.7442 84.639 37.3389 82.175 40.5359 82.175C43.7329 82.175 46.3275 84.639 46.3275 87.6628ZM128.395 76.1823C131.54 79.8701 133.203 84.2329 133.203 88.7988C133.203 96.191 128.859 102.985 121.868 106.53C121.133 106.903 120.6 107.562 120.415 108.336C117.855 118.861 108.113 126.215 96.7382 126.215C83.3131 126.215 72.39 115.865 72.39 103.139V76.6817H86.8692C94.8559 76.6817 101.348 70.5243 101.348 62.962V59.8724C106.341 58.6486 110.036 54.3516 110.036 49.2424C110.036 43.1893 104.841 38.2667 98.4525 38.2667C92.0643 38.2667 86.8692 43.1893 86.8692 49.2424C86.8692 54.3461 90.5643 58.6486 95.5567 59.8724V62.962C95.5567 67.5005 91.6589 71.1938 86.8692 71.1938H72.39V20.5794C72.39 12.2544 79.5312 5.48785 88.3171 5.48785C96.5297 5.48785 103.468 11.6068 104.111 19.4215C104.227 20.8483 105.634 21.9514 107.14 21.9514C115.874 21.9514 121.092 29.6892 121.092 37.1637C121.092 38.0308 120.971 38.8704 120.814 39.6936C120.594 40.8405 121.173 41.9985 122.245 42.5692C129.004 46.1638 133.203 52.8864 133.203 60.1084C133.203 64.6743 131.54 69.0371 128.395 72.7249C127.538 73.7347 127.538 75.167 128.395 76.1768V76.1823ZM98.4525 54.7358C95.2555 54.7358 92.6609 52.2717 92.6609 49.2479C92.6609 46.2241 95.2555 43.7601 98.4525 43.7601C101.65 43.7601 104.244 46.2241 104.244 49.2479C104.244 52.2717 101.65 54.7358 98.4525 54.7358Z" fill="white"/>
</svg>
