<svg width="74" height="74" viewBox="0 0 74 74" fill="none" xmlns="http://www.w3.org/2000/svg">
<path d="M28.7464 47.5336H45.2536C45.8583 47.5336 46.4382 47.2934 46.8658 46.8658C47.2934 46.4382 47.5336 45.8583 47.5336 45.2536V28.7464C47.5336 28.1417 47.2934 27.5618 46.8658 27.1342C46.4382 26.7066 45.8583 26.4664 45.2536 26.4664H28.7464C28.1417 26.4664 27.5618 26.7066 27.1342 27.1342C26.7066 27.5618 26.4664 28.1417 26.4664 28.7464V45.2536C26.4664 45.8583 26.7066 46.4382 27.1342 46.8658C27.5618 47.2934 28.1417 47.5336 28.7464 47.5336ZM31.0264 31.0264H42.9736V42.9736H31.0264V31.0264ZM71.2 39.28C71.8047 39.28 72.3846 39.0398 72.8122 38.6122C73.2398 38.1846 73.48 37.6047 73.48 37C73.48 36.3953 73.2398 35.8154 72.8122 35.3878C72.3846 34.9602 71.8047 34.72 71.2 34.72H63.0376V23.1262H71.2C71.8047 23.1262 72.3846 22.886 72.8122 22.4584C73.2398 22.0308 73.48 21.4509 73.48 20.8462C73.48 20.2415 73.2398 19.6616 72.8122 19.234C72.3846 18.8064 71.8047 18.5662 71.2 18.5662H63.0376V13.2424C63.0376 12.6377 62.7974 12.0578 62.3698 11.6302C61.9422 11.2026 61.3623 10.9624 60.7576 10.9624H55.4338V2.80002C55.4338 2.19533 55.1936 1.6154 54.766 1.18782C54.3384 0.760234 53.7585 0.52002 53.1538 0.52002C52.5491 0.52002 51.9692 0.760234 51.5416 1.18782C51.114 1.6154 50.8738 2.19533 50.8738 2.80002V10.9624H39.28V2.80002C39.28 2.19533 39.0398 1.6154 38.6122 1.18782C38.1846 0.760234 37.6047 0.52002 37 0.52002C36.3953 0.52002 35.8154 0.760234 35.3878 1.18782C34.9602 1.6154 34.72 2.19533 34.72 2.80002V10.9624H23.1262V2.80002C23.1262 2.19533 22.886 1.6154 22.4584 1.18782C22.0308 0.760234 21.4509 0.52002 20.8462 0.52002C20.2415 0.52002 19.6616 0.760234 19.234 1.18782C18.8064 1.6154 18.5662 2.19533 18.5662 2.80002V10.9624H13.2424C12.6377 10.9624 12.0578 11.2026 11.6302 11.6302C11.2026 12.0578 10.9624 12.6377 10.9624 13.2424V18.5662H2.79999C2.1953 18.5662 1.61537 18.8064 1.18779 19.234C0.760203 19.6616 0.519989 20.2415 0.519989 20.8462C0.519989 21.4509 0.760203 22.0308 1.18779 22.4584C1.61537 22.886 2.1953 23.1262 2.79999 23.1262H10.9624V34.72H2.79999C2.1953 34.72 1.61537 34.9602 1.18779 35.3878C0.760203 35.8154 0.519989 36.3953 0.519989 37C0.519989 37.6047 0.760203 38.1846 1.18779 38.6122C1.61537 39.0398 2.1953 39.28 2.79999 39.28H10.9624V50.8738H2.79999C2.1953 50.8738 1.61537 51.114 1.18779 51.5416C0.760203 51.9692 0.519989 52.5491 0.519989 53.1538C0.519989 53.7585 0.760203 54.3384 1.18779 54.766C1.61537 55.1936 2.1953 55.4338 2.79999 55.4338H10.9624V60.7576C10.9624 61.3623 11.2026 61.9422 11.6302 62.3698C12.0578 62.7974 12.6377 63.0376 13.2424 63.0376H18.5662V71.2C18.5662 71.8047 18.8064 72.3846 19.234 72.8122C19.6616 73.2398 20.2415 73.48 20.8462 73.48C21.4509 73.48 22.0308 73.2398 22.4584 72.8122C22.886 72.3846 23.1262 71.8047 23.1262 71.2V63.0376H34.72V71.2C34.72 71.8047 34.9602 72.3846 35.3878 72.8122C35.8154 73.2398 36.3953 73.48 37 73.48C37.6047 73.48 38.1846 73.2398 38.6122 72.8122C39.0398 72.3846 39.28 71.8047 39.28 71.2V63.0376H50.8738V71.2C50.8738 71.8047 51.114 72.3846 51.5416 72.8122C51.9692 73.2398 52.5491 73.48 53.1538 73.48C53.7585 73.48 54.3384 73.2398 54.766 72.8122C55.1936 72.3846 55.4338 71.8047 55.4338 71.2V63.0376H60.7576C61.3623 63.0376 61.9422 62.7974 62.3698 62.3698C62.7974 61.9422 63.0376 61.3623 63.0376 60.7576V55.4338H71.2C71.8047 55.4338 72.3846 55.1936 72.8122 54.766C73.2398 54.3384 73.48 53.7585 73.48 53.1538C73.48 52.5491 73.2398 51.9692 72.8122 51.5416C72.3846 51.114 71.8047 50.8738 71.2 50.8738H63.0376V39.28H71.2ZM58.4776 58.4776H15.5224V15.5224H58.4776V58.4776Z" fill="black"/>
</svg>
