<svg width="71" height="71" viewBox="0 0 71 71" fill="none" xmlns="http://www.w3.org/2000/svg">
<g clip-path="url(#clip0_164_34)">
<path d="M62.125 67.5078H8.87501C5.90854 67.5078 3.49454 65.0916 3.49454 62.1251V8.8751C3.49454 5.90863 5.90854 3.49463 8.87501 3.49463H62.125C65.0915 3.49463 67.5077 5.90863 67.5077 8.8751V62.1251C67.5077 65.0916 65.0915 67.5078 62.125 67.5078ZM36.443 65.6174H62.125C64.0509 65.6174 65.6173 64.051 65.6173 62.1251V56.414H55.4688C55.218 56.414 54.9784 56.3142 54.8009 56.1367L46.2033 47.539H36.443V65.6174ZM5.38047 56.414V62.1251C5.38047 64.051 6.94913 65.6174 8.87501 65.6174H34.557V47.539H24.799L16.2013 56.1367C16.0238 56.3142 15.7842 56.414 15.5335 56.414H5.38047ZM55.8593 54.5237H65.6173V36.4431H47.5389V46.2034L55.8593 54.5237ZM5.38047 54.5237H15.1385L23.4611 46.2034V36.4431H5.38047V54.5237ZM25.3492 45.6487H45.6486V25.3493H25.3492V45.6487ZM47.5389 34.5571H65.6173V16.4743H55.8593L47.5389 24.7969V34.5571ZM5.38047 34.5571H23.4611V24.7991L15.1408 16.4743H5.38047V34.5571ZM36.443 23.4634H46.2033L54.8009 14.8657C54.9784 14.6882 55.218 14.5884 55.4688 14.5884H65.6173V8.8751C65.6173 6.94922 64.0509 5.38057 62.125 5.38057H36.443V23.4634ZM24.7968 23.4634H34.5548V5.38057H8.87501C6.94913 5.38057 5.38047 6.94922 5.38047 8.8751V14.5884H15.5313C15.782 14.5884 16.0216 14.686 16.1991 14.8657L24.7968 23.4634Z" fill="black"/>
</g>
<defs>
<clipPath id="clip0_164_34">
<rect width="71" height="71" fill="white"/>
</clipPath>
</defs>
</svg>
