<svg width="173" height="173" viewBox="0 0 173 173" fill="none" xmlns="http://www.w3.org/2000/svg">
<path d="M57.8033 78.7839L36.7666 74.7086V69.5707C36.7666 65.3524 33.3498 61.936 29.1316 61.936C24.912 61.936 21.4689 65.3524 21.4689 69.5707V93.4791C21.4689 97.6974 24.912 101.142 29.1316 101.142C33.3502 101.142 36.7666 97.6974 36.7666 93.4791V88.9723C42.8797 90.2644 51.3175 92.0164 56.8575 93.1064C66.4138 95.0294 69.2838 109.38 86.5047 109.38C89.2038 109.38 91.5569 109.035 93.6518 108.404L63.3728 78.1254C61.4201 78.5261 59.5549 78.7839 57.8033 78.7839Z" fill="white"/>
<path d="M116.153 93.1065C121.693 92.0164 130.102 90.2645 136.216 88.9724V93.4791C136.216 97.6974 139.659 101.142 143.879 101.142C148.098 101.142 151.514 97.6974 151.514 93.4791V69.5707C151.514 65.3525 148.098 61.936 143.879 61.936C139.659 61.936 136.216 65.3525 136.216 69.5707V74.7086L115.177 78.7839C107.542 78.7839 97.9849 73.9913 86.5044 73.9913C85.6032 73.9913 84.7159 74.0278 83.8374 74.0808L32.6896 22.9316L25.2087 30.4098L144.865 150.069L152.343 142.588L107.986 98.2299C110.485 95.7944 112.939 93.7454 116.153 93.1065Z" fill="white"/>
<path d="M33.9817 48.7349H0V58.7216H43.9697L33.9817 48.7349Z" fill="white"/>
<path d="M173 48.7261H114.74V58.7128H173V48.7261Z" fill="white"/>
<path d="M24.7687 46.4396H31.6864L27.6097 42.3643C25.9459 42.9667 24.7687 44.5727 24.7687 46.4396Z" fill="white"/>
<path d="M143.873 42.064C141.457 42.064 139.5 44.0203 139.5 46.4363H148.24C148.239 44.02 146.283 42.064 143.873 42.064Z" fill="white"/>
</svg>
