<svg width="253" height="353" viewBox="0 0 253 353" fill="none" xmlns="http://www.w3.org/2000/svg">
<path d="M85.2581 345.982C78.7878 353.779 67.1539 354.909 59.9712 347.763C31.5619 319.499 12.0267 283.363 4.03361 243.816C-5.17542 198.254 1.49122 150.913 22.9247 109.666C44.3581 68.4192 79.2665 35.7532 121.844 17.1013C158.799 0.912084 199.598 -3.87241 239.056 3.12999C249.032 4.9004 254.794 15.0703 252.132 24.8464C249.471 34.6226 239.392 40.2831 229.383 38.7109C198.059 33.7906 165.841 37.8842 136.566 50.7089C101.666 65.9978 73.0513 92.7742 55.4823 126.584C37.9132 160.394 32.4486 199.2 39.9972 236.547C46.3292 267.875 61.4973 296.592 83.5278 319.397C90.5674 326.684 91.7285 338.185 85.2581 345.982Z" fill="#6E5BE9"/>
</svg>
