<svg width="322" height="340" viewBox="0 0 322 340" fill="none" xmlns="http://www.w3.org/2000/svg">
<path d="M248.95 6.04949C256.376 -1.37639 268.495 -1.42828 275.195 6.65791C304.004 41.4222 320.554 84.9504 321.91 130.439C323.455 182.29 305.14 232.774 270.708 271.573C236.277 310.373 188.328 334.559 136.661 339.188C91.3335 343.249 46.1466 331.99 8.20438 307.518C-0.620995 301.826 -2.00993 289.788 4.48061 281.532C10.9712 273.276 22.8779 271.951 31.8236 277.452C62.0412 296.035 97.6006 304.505 133.267 301.309C175.278 297.545 214.267 277.879 242.264 246.331C270.26 214.782 285.153 173.733 283.896 131.572C282.83 95.7785 270.193 61.478 248.15 33.6835C241.625 25.4552 241.525 13.4754 248.95 6.04949Z" fill="#AD00FF"/>
</svg>
