<svg width="78" height="123" viewBox="0 0 78 123" fill="none" xmlns="http://www.w3.org/2000/svg">
<path d="M65.6344 0H12.3652C6.08699 0 0.950317 5.18906 0.950317 11.5312V111.469C0.950317 117.811 6.08699 123 12.3652 123H65.6344C71.9126 123 77.0492 117.811 77.0492 111.469V11.5312C77.0492 5.18906 71.9126 0 65.6344 0ZM38.9998 115.312C34.7915 115.312 31.3899 111.876 31.3899 107.625C31.3899 103.374 34.7915 99.9375 38.9998 99.9375C43.208 99.9375 46.6097 103.374 46.6097 107.625C46.6097 111.876 43.208 115.312 38.9998 115.312ZM69.4393 92.25H8.56021V15.375H69.4393V92.25Z" fill="white"/>
</svg>
