<svg width="123" height="107" viewBox="0 0 123 107" fill="none" xmlns="http://www.w3.org/2000/svg">
<path d="M115.312 86.25H65.3438V98.5312H84.7432C86.8688 98.5312 88.5869 100.365 88.5869 102.625C88.5869 104.885 86.8688 106.719 84.7432 106.719H38.6182C36.4926 106.719 34.7744 104.885 34.7744 102.625C34.7744 100.365 36.4926 98.5312 38.6182 98.5312H57.6562V86.25H7.6875C3.45169 86.25 0 82.5779 0 78.0625V8.46875C0 3.95334 3.45169 0.28125 7.6875 0.28125H115.312C119.552 0.28125 123 3.95334 123 8.46875V78.0625C123 82.5779 119.552 86.25 115.312 86.25ZM7.6875 8.46875V78.0625H115.301L115.312 8.46875H7.6875Z" fill="white"/>
</svg>
