<svg width="127" height="127" viewBox="0 0 127 127" fill="none" xmlns="http://www.w3.org/2000/svg">
<g clip-path="url(#clip0_164_19)">
<path d="M27.7812 35.1831C27.9704 35.1767 28.1549 35.122 28.317 35.0243C28.5378 34.882 28.6931 34.6579 28.7489 34.4012C28.8046 34.1446 28.7564 33.8763 28.6147 33.6551C27.2717 31.564 26.684 29.0765 26.9493 26.6054C27.2145 24.1344 28.3166 21.8283 30.0728 20.0698C31.829 18.3113 34.1337 17.2061 36.6044 16.9376C39.0751 16.6691 41.5633 17.2535 43.6562 18.5937C43.8774 18.7354 44.1457 18.7837 44.4024 18.7279C44.659 18.6721 44.8831 18.5168 45.0254 18.2961C45.1682 18.0718 45.217 17.8004 45.1613 17.5405C45.1056 17.2806 44.9499 17.053 44.7278 16.907C42.2483 15.281 39.2844 14.5588 36.3349 14.8621C33.3853 15.1654 30.6304 16.4757 28.5337 18.5723C26.4371 20.6689 25.1269 23.4239 24.8235 26.3734C24.5202 29.323 25.2424 32.2869 26.8684 34.7664C26.975 34.9051 27.1139 35.0155 27.273 35.0882C27.4321 35.1608 27.6066 35.1934 27.7812 35.1831Z" fill="white"/>
<path d="M37.7031 38.6955C36.549 38.6998 35.4022 38.5121 34.3098 38.1398C34.0571 38.063 33.7845 38.086 33.5482 38.2042C33.312 38.3223 33.13 38.5265 33.0398 38.7748C32.9584 39.0248 32.9796 39.2969 33.0987 39.5313C33.2177 39.7657 33.4249 39.9433 33.6748 40.025C34.9545 40.453 36.2942 40.6741 37.6436 40.6798C39.3417 40.685 41.0242 40.3554 42.5948 39.7098C44.1654 39.0642 45.5933 38.1152 46.7968 36.9172C48.0003 35.7192 48.9559 34.2957 49.6087 32.7281C50.2616 31.1605 50.5989 29.4795 50.6015 27.7814C50.5958 26.4321 50.3748 25.0923 49.9467 23.8126C49.865 23.5628 49.6874 23.3555 49.453 23.2365C49.2186 23.1174 48.9465 23.0963 48.6965 23.1776C48.4483 23.2678 48.244 23.4498 48.1259 23.6861C48.0077 23.9223 47.9847 24.1949 48.0615 24.4476C48.4273 25.5212 48.615 26.6473 48.6172 27.7814C48.6119 30.6744 47.4604 33.4474 45.4147 35.493C43.3691 37.5387 40.5961 38.6902 37.7031 38.6955Z" fill="white"/>
<path d="M37.7031 32.7422C38.6843 32.7422 39.6435 32.4512 40.4593 31.9061C41.2751 31.361 41.911 30.5862 42.2864 29.6797C42.6619 28.7732 42.7602 27.7757 42.5687 26.8134C42.3773 25.8511 41.9048 24.9671 41.211 24.2733C40.5172 23.5795 39.6333 23.1071 38.671 22.9156C37.7086 22.7242 36.7111 22.8225 35.8047 23.1979C34.8982 23.5734 34.1234 24.2093 33.5783 25.0251C33.0331 25.8409 32.7422 26.8001 32.7422 27.7813C32.7422 29.097 33.2649 30.3588 34.1952 31.2892C35.1256 32.2195 36.3874 32.7422 37.7031 32.7422ZM37.7031 24.8047C38.2918 24.8047 38.8673 24.9793 39.3568 25.3063C39.8463 25.6334 40.2278 26.0983 40.4531 26.6422C40.6784 27.1861 40.7373 27.7846 40.6225 28.362C40.5076 28.9393 40.2242 29.4697 39.8079 29.886C39.3916 30.3023 38.8612 30.5858 38.2838 30.7006C37.7064 30.8155 37.1079 30.7565 36.564 30.5312C36.0201 30.3059 35.5553 29.9244 35.2282 29.4349C34.9011 28.9454 34.7266 28.37 34.7266 27.7813C34.7266 26.9918 35.0402 26.2347 35.5984 25.6765C36.1566 25.1183 36.9137 24.8047 37.7031 24.8047Z" fill="white"/>
<path d="M111.621 52.7247C111.51 52.6576 111.386 52.6135 111.257 52.5952C111.128 52.5768 110.997 52.5845 110.871 52.6178C110.745 52.6511 110.627 52.7094 110.524 52.7891C110.421 52.8688 110.335 52.9684 110.272 53.0819L103.187 65.5835L100.112 60.9599C99.9644 60.7388 99.7352 60.5854 99.4747 60.5333C99.2142 60.4812 98.9437 60.5347 98.7227 60.6821C98.5016 60.8294 98.3482 61.0586 98.2961 61.3191C98.244 61.5796 98.2975 61.8501 98.4448 62.0711L102.414 68.0243C102.507 68.1591 102.631 68.2692 102.776 68.3453C102.922 68.4213 103.083 68.461 103.247 68.4608C103.414 68.4549 103.576 68.4062 103.719 68.3193C103.861 68.2324 103.979 68.1103 104.061 67.9647L111.998 54.0741C112.064 53.9614 112.107 53.8364 112.124 53.7067C112.141 53.577 112.132 53.4452 112.097 53.3192C112.061 53.1932 112.001 53.0756 111.919 52.9735C111.838 52.8713 111.736 52.7867 111.621 52.7247Z" fill="white"/>
<path d="M121.047 75.4062H118.705C118.936 74.7699 119.057 74.0988 119.062 73.4219V33.7344C119.062 32.1555 118.435 30.6413 117.319 29.5249C116.202 28.4085 114.688 27.7812 113.109 27.7812H97.2344C95.6555 27.7812 94.1413 28.4085 93.0249 29.5249C91.9084 30.6413 91.2812 32.1555 91.2812 33.7344V35.7188C90.755 35.7188 90.2502 35.9278 89.8781 36.3C89.5059 36.6721 89.2969 37.1768 89.2969 37.7031V41.6719C89.2969 42.1982 89.5059 42.7029 89.8781 43.075C90.2502 43.4472 90.755 43.6562 91.2812 43.6562V73.4219C91.2866 74.0988 91.4074 74.7699 91.6384 75.4062H62.5078V63.5H63.5C64.0263 63.5 64.531 63.2909 64.9032 62.9188C65.2753 62.5466 65.4844 62.0419 65.4844 61.5156H69.4531C71.032 61.5156 72.5462 60.8884 73.6626 59.772C74.779 58.6556 75.4062 57.1414 75.4062 55.5625V5.95312C75.4062 4.37426 74.779 2.86006 73.6626 1.74363C72.5462 0.627202 71.032 0 69.4531 0L5.95312 0C4.37426 0 2.86006 0.627202 1.74363 1.74363C0.627202 2.86006 0 4.37426 0 5.95312L0 55.5625C0 57.1414 0.627202 58.6556 1.74363 59.772C2.86006 60.8884 4.37426 61.5156 5.95312 61.5156H27.7812C27.2591 66.2599 26.1664 70.9238 24.5269 75.4062H5.95312C4.55703 75.4171 3.20916 75.9182 2.14512 76.8221C1.08109 77.726 0.368583 78.9751 0.132162 80.3511C-0.104259 81.7271 0.150446 83.1424 0.85175 84.3496C1.55306 85.5568 2.65634 86.4791 3.96875 86.9553V121.047C3.96875 122.626 4.59595 124.14 5.71238 125.256C6.82881 126.373 8.34301 127 9.92187 127C11.5007 127 13.0149 126.373 14.1314 125.256C15.2478 124.14 15.875 122.626 15.875 121.047V103.188H49.6094C51.1882 103.188 52.7024 102.56 53.8189 101.444C54.9353 100.327 55.5625 98.8132 55.5625 97.2344V87.3125H60.5234V103.188C60.5234 109.24 62.9277 115.044 67.2073 119.324C71.487 123.604 77.2914 126.008 83.3437 126.008C89.3961 126.008 95.2005 123.604 99.4801 119.324C103.76 115.044 106.164 109.24 106.164 103.188V87.3125H111.125V121.047C111.125 122.626 111.752 124.14 112.869 125.256C113.985 126.373 115.499 127 117.078 127C118.657 127 120.171 126.373 121.288 125.256C122.404 124.14 123.031 122.626 123.031 121.047V86.9553C124.344 86.4791 125.447 85.5568 126.148 84.3496C126.85 83.1424 127.104 81.7271 126.868 80.3511C126.631 78.9751 125.919 77.726 124.855 76.8221C123.791 75.9182 122.443 75.4171 121.047 75.4062ZM95.25 33.7344C95.25 33.2081 95.4591 32.7034 95.8312 32.3312C96.2033 31.9591 96.7081 31.75 97.2344 31.75H113.109C113.636 31.75 114.14 31.9591 114.513 32.3312C114.885 32.7034 115.094 33.2081 115.094 33.7344V34.3297H114.102C113.527 34.3417 112.962 34.4837 112.45 34.7449C111.938 35.006 111.492 35.3797 111.145 35.8378C110.589 36.4331 110.292 36.7109 109.637 36.7109H100.707C100.052 36.7109 99.7545 36.4331 99.1989 35.8378C98.8518 35.3797 98.4054 35.006 97.8934 34.7449C97.3814 34.4837 96.8169 34.3417 96.2422 34.3297H95.25V33.7344ZM95.25 73.4219V36.3141H96.2422C96.897 36.3141 97.1947 36.5919 97.7503 37.1872C98.0975 37.6453 98.5438 38.019 99.0558 38.2801C99.5679 38.5413 100.132 38.6833 100.707 38.6953H109.637C110.211 38.6833 110.776 38.5413 111.288 38.2801C111.8 38.019 112.246 37.6453 112.593 37.1872C113.149 36.5919 113.447 36.3141 114.102 36.3141H115.094V73.4219C115.094 73.9482 114.885 74.4529 114.513 74.825C114.14 75.1972 113.636 75.4062 113.109 75.4062H97.2344C96.7081 75.4062 96.2033 75.1972 95.8312 74.825C95.4591 74.4529 95.25 73.9482 95.25 73.4219ZM97.2344 79.375H101.203C101.203 79.9013 101.412 80.406 101.784 80.7782C102.156 81.1503 102.661 81.3594 103.187 81.3594H104.18V83.3438H62.5078V79.375H97.2344ZM60.5234 75.4062H50.9786C49.3391 70.9238 48.2464 66.2599 47.7242 61.5156H57.5469C57.5469 62.0419 57.7559 62.5466 58.1281 62.9188C58.5002 63.2909 59.005 63.5 59.5312 63.5H60.5234V75.4062ZM71.4375 55.5625C71.4375 56.0888 71.2284 56.5935 70.8563 56.9657C70.4841 57.3378 69.9794 57.5469 69.4531 57.5469H40.64C41.2584 57.0869 41.7602 56.4882 42.1049 55.7988C42.4495 55.1095 42.6275 54.3488 42.6244 53.5781C42.6316 52.5099 42.298 51.4671 41.6719 50.6016H71.4375V55.5625ZM37.7031 50.6016C38.2918 50.6016 38.8673 50.7761 39.3568 51.1032C39.8463 51.4303 40.2278 51.8951 40.4531 52.439C40.6784 52.9829 40.7373 53.5814 40.6225 54.1588C40.5076 54.7362 40.2241 55.2666 39.8079 55.6829C39.3916 56.0992 38.8612 56.3826 38.2838 56.4975C37.7064 56.6123 37.1079 56.5534 36.564 56.3281C36.0201 56.1028 35.5553 55.7213 35.2282 55.2318C34.9011 54.7423 34.7266 54.1668 34.7266 53.5781C34.7266 52.7887 35.0402 52.0316 35.5984 51.4734C36.1566 50.9152 36.9137 50.6016 37.7031 50.6016ZM5.95312 3.96875H69.4531C69.9794 3.96875 70.4841 4.17782 70.8563 4.54996C71.2284 4.9221 71.4375 5.42684 71.4375 5.95312V48.6172H3.96875V5.95312C3.96875 5.42684 4.17782 4.9221 4.54996 4.54996C4.9221 4.17782 5.42684 3.96875 5.95312 3.96875ZM3.96875 55.5625V50.6016H33.7344C33.0941 51.4623 32.7464 52.5054 32.7422 53.5781C32.7391 54.3488 32.917 55.1095 33.2617 55.7988C33.6064 56.4882 34.1081 57.0869 34.7266 57.5469H5.95312C5.42684 57.5469 4.9221 57.3378 4.54996 56.9657C4.17782 56.5935 3.96875 56.0888 3.96875 55.5625ZM31.75 61.5156H43.6562C44.1001 66.252 45.1197 70.9166 46.6923 75.4062H28.6345C30.2342 70.92 31.2805 66.2553 31.75 61.5156ZM11.9062 101.203V114.102H7.9375V87.3125H11.9062V101.203ZM9.92187 123.031C9.39559 123.031 8.89085 122.822 8.51871 122.45C8.14657 122.078 7.9375 121.573 7.9375 121.047V116.086H11.9062V121.047C11.9062 121.573 11.6972 122.078 11.325 122.45C10.9529 122.822 10.4482 123.031 9.92187 123.031ZM51.5937 97.2344C51.5937 97.7607 51.3847 98.2654 51.0125 98.6375C50.6404 99.0097 50.1357 99.2188 49.6094 99.2188H15.875V87.3125H51.5937V97.2344ZM53.5781 83.3438H5.95312C5.42684 83.3438 4.9221 83.1347 4.54996 82.7625C4.17782 82.3904 3.96875 81.8857 3.96875 81.3594C3.96875 80.8331 4.17782 80.3284 4.54996 79.9562C4.9221 79.5841 5.42684 79.375 5.95312 79.375H60.5234V83.3438H53.5781ZM104.18 103.188C104.18 108.714 101.984 114.013 98.077 117.921C94.1695 121.828 88.8698 124.023 83.3437 124.023C77.8177 124.023 72.518 121.828 68.6105 117.921C64.703 114.013 62.5078 108.714 62.5078 103.188V87.3125H104.18V103.188ZM119.062 114.102H115.094V87.3125H119.062V114.102ZM117.078 123.031C116.552 123.031 116.047 122.822 115.675 122.45C115.303 122.078 115.094 121.573 115.094 121.047V116.086H119.062V121.047C119.062 121.573 118.853 122.078 118.481 122.45C118.109 122.822 117.604 123.031 117.078 123.031ZM121.047 83.3438H106.164V81.3594H107.156C107.683 81.3594 108.187 81.1503 108.559 80.7782C108.932 80.406 109.141 79.9013 109.141 79.375H121.047C121.573 79.375 122.078 79.5841 122.45 79.9562C122.822 80.3284 123.031 80.8331 123.031 81.3594C123.031 81.8857 122.822 82.3904 122.45 82.7625C122.078 83.1347 121.573 83.3438 121.047 83.3438Z" fill="white"/>
<path d="M33.7344 96.2422C34.3231 96.2422 34.8986 96.0676 35.3881 95.7405C35.8776 95.4135 36.2591 94.9486 36.4844 94.4047C36.7096 93.8608 36.7686 93.2623 36.6537 92.6849C36.5389 92.1075 36.2554 91.5772 35.8391 91.1609C35.4228 90.7446 34.8925 90.4611 34.3151 90.3463C33.7377 90.2314 33.1392 90.2904 32.5953 90.5156C32.0514 90.7409 31.5865 91.1224 31.2595 91.6119C30.9324 92.1014 30.7578 92.6769 30.7578 93.2656C30.7578 94.0551 31.0714 94.8122 31.6296 95.3704C32.1878 95.9286 32.9449 96.2422 33.7344 96.2422ZM33.7344 92.2734C33.9306 92.2734 34.1224 92.3316 34.2856 92.4407C34.4488 92.5497 34.5759 92.7046 34.651 92.8859C34.7261 93.0672 34.7458 93.2667 34.7075 93.4592C34.6692 93.6517 34.5747 93.8284 34.436 93.9672C34.2972 94.106 34.1204 94.2005 33.9279 94.2387C33.7355 94.277 33.536 94.2574 33.3547 94.1823C33.1734 94.1072 33.0184 93.98 32.9094 93.8169C32.8004 93.6537 32.7422 93.4619 32.7422 93.2656C32.7422 93.0025 32.8467 92.7501 33.0328 92.564C33.2189 92.378 33.4712 92.2734 33.7344 92.2734Z" fill="white"/>
</g>
<defs>
<clipPath id="clip0_164_19">
<rect width="127" height="127" fill="white"/>
</clipPath>
</defs>
</svg>
