<svg width="115" height="114" viewBox="0 0 115 114" fill="none" xmlns="http://www.w3.org/2000/svg">
<path d="M57.4999 44.1114C67.4286 44.0952 76.9684 47.9698 84.0739 54.9044L80.3329 58.7637C74.2201 52.8168 66.0283 49.4895 57.4999 49.4895C48.9716 49.4895 40.7798 52.8168 34.6669 58.7637L30.9259 54.9044C38.0315 47.9698 47.5713 44.0952 57.4999 44.1114ZM99.3067 39.7308C88.2103 28.6591 73.1752 22.4411 57.4999 22.4411C41.8247 22.4411 26.7896 28.6591 15.6932 39.7308L19.4933 43.5309C29.581 33.4656 43.2495 27.8127 57.4999 27.8127C71.7503 27.8127 85.4188 33.4656 95.5066 43.5309L99.3067 39.7308ZM0.49268 24.5303L4.28743 28.3251C18.4112 14.2369 37.5457 6.32528 57.4946 6.32528C77.4434 6.32528 96.5779 14.2369 110.702 28.3251L114.502 24.525C99.3708 9.42784 78.8691 0.949219 57.4946 0.949219C36.12 0.949219 15.6183 9.42784 0.487305 24.525L0.49268 24.5303ZM105.875 97.2326V113.25H9.12493V97.2326C9.13062 92.9292 10.8426 88.8037 13.8856 85.7607C16.9286 82.7178 21.054 81.0058 25.3574 81.0001H41.3749C41.3749 76.7234 43.0738 72.622 46.0978 69.598C49.1219 66.5739 53.2233 64.8751 57.4999 64.8751C61.7765 64.8751 65.878 66.5739 68.902 69.598C71.9261 72.622 73.6249 76.7234 73.6249 81.0001H89.6424C93.9458 81.0058 98.0713 82.7178 101.114 85.7607C104.157 88.8037 105.869 92.9292 105.875 97.2326ZM100.5 97.2326C100.497 94.3539 99.3523 91.5939 97.3167 89.5583C95.2811 87.5227 92.5211 86.3779 89.6424 86.3751H25.3574C22.4787 86.3779 19.7187 87.5227 17.6832 89.5583C15.6476 91.5939 14.5028 94.3539 14.4999 97.2326V107.875H100.5V97.2326ZM46.7499 81.0001H68.2499C68.2499 78.149 67.1173 75.4147 65.1013 73.3987C63.0853 71.3827 60.351 70.2501 57.4999 70.2501C54.6489 70.2501 51.9146 71.3827 49.8985 73.3987C47.8825 75.4147 46.7499 78.149 46.7499 81.0001Z" fill="white"/>
</svg>
