<svg width="131" height="102" viewBox="0 0 131 102" fill="none" xmlns="http://www.w3.org/2000/svg">
<path d="M65.5001 85C70.182 85 73.9771 88.8055 73.9771 93.5C73.9771 98.1945 70.182 102 65.5001 102V85ZM65.4154 102C60.7335 102 56.9384 98.1945 56.9384 93.5C56.9384 88.8055 60.7335 85 65.4154 85V102ZM42.6927 68.34C39.229 71.4986 33.8682 71.2444 30.7181 67.7722C27.5672 64.2991 27.8215 58.9237 31.2844 55.7643L42.6927 68.34ZM14.1812 36.8925C10.7183 40.0511 5.35663 39.797 2.20657 36.3239C-0.944336 32.8517 -0.690033 27.4754 2.77283 24.3168L14.1812 36.8925ZM99.7155 55.7643C103.179 58.9237 103.433 64.2991 100.282 67.7722C97.132 71.2444 91.7706 71.4986 88.3074 68.34L99.7155 55.7643ZM128.227 24.3168C131.69 27.4754 131.944 32.8517 128.794 36.3239C125.643 39.797 120.282 40.0511 116.819 36.8925L128.227 24.3168ZM65.5001 102H65.4154V85H65.5001V102ZM65.5001 59.5C56.712 59.5 48.7216 62.8414 42.6927 68.34L31.2844 55.7643C40.3124 47.5303 52.3303 42.5 65.5001 42.5V59.5ZM65.5001 17C45.7326 17 27.7385 24.5267 14.1812 36.8925L2.77283 24.3168C19.3293 9.2157 41.3517 0 65.5001 0V17ZM88.3074 68.34C82.2787 62.8414 74.2882 59.5 65.5001 59.5V42.5C78.67 42.5 90.6876 47.5303 99.7155 55.7643L88.3074 68.34ZM116.819 36.8925C103.261 24.5267 85.2672 17 65.5001 17V0C89.6488 0 111.671 9.2157 128.227 24.3168L116.819 36.8925Z" fill="white"/>
</svg>
