<svg width="64" height="54" viewBox="0 0 64 54" fill="none" xmlns="http://www.w3.org/2000/svg">
<path d="M16.0002 7.69263H4.00017C1.78911 7.69263 0 9.26098 0 11.1915V49.6805C0 51.6142 1.78911 53.179 4.00017 53.179H16.0003C18.2112 53.179 20.0001 51.6142 20.0001 49.6805V11.1915C19.9999 9.26098 18.2111 7.69263 16.0002 7.69263ZM6.00019 42.6822C4.8946 42.6822 4.00017 41.8998 4.00017 40.9322C4.00017 39.9656 4.8946 39.1832 6.00019 39.1832C7.10553 39.1832 7.99995 39.9656 7.99995 40.9322C7.99995 41.8998 7.10553 42.6822 6.00019 42.6822ZM16.0002 21.6884H4.00017V18.1896H16.0003L16.0002 21.6884ZM16.0002 14.6905H4.00017V11.1915H16.0003L16.0002 14.6905Z" fill="black"/>
<path d="M42.0004 46.1809V42.6824H30.0001V46.1809C27.7895 46.1809 25.9999 47.7463 25.9999 49.6805H46C46 47.7463 44.2111 46.1809 42.0004 46.1809Z" fill="black"/>
<path d="M60.0005 0.694336H12.0001C9.78918 0.694336 7.99994 2.26269 7.99994 4.19345H12.0001H24.0002H60.0006V32.1849H24.0001V39.1831H60.0005C62.211 39.1831 64 37.6183 64 35.6834V4.19333C64 2.26257 62.2109 0.694336 60.0005 0.694336ZM36.0002 37.4336C34.8946 37.4336 34.0002 36.6516 34.0002 35.6834C34.0002 34.7168 34.8946 33.9344 36.0002 33.9344C37.106 33.9344 38.0004 34.7168 38.0004 35.6834C38.0004 36.6516 37.1058 37.4336 36.0002 37.4336Z" fill="black"/>
</svg>
